<svg width="29" height="41" viewBox="0 0 29 41" fill="none" xmlns="http://www.w3.org/2000/svg">
<path d="M14.5 0C8.03555 0 2.77398 5.26157 2.77398 11.726V18.4237C2.77398 18.5014 2.67988 18.6282 2.60624 18.6528C1.97207 18.8655 1.45655 19.0456 0.986032 19.2297C0.425508 19.4465 0 20.0684 0 20.678V36.0659C0 36.6714 0.421416 37.2933 0.97785 37.5142C5.30248 39.2286 9.85214 40.0959 14.5 40.0959C19.1479 40.0959 23.6975 39.2286 28.0221 37.5142C28.5786 37.2933 29 36.6714 29 36.0659V20.678C29 20.0684 28.5745 19.4465 28.014 19.2297C27.5435 19.0497 27.0279 18.8655 26.3938 18.6528C26.3201 18.6282 26.226 18.5014 26.226 18.4237V11.726C26.226 5.26157 20.9644 0 14.5 0ZM11.3046 25.3627C11.3046 23.5993 12.7325 22.1673 14.5 22.1673C16.2634 22.1673 17.6954 23.5952 17.6954 25.3627C17.6954 26.5329 17.0367 27.5107 16.0997 28.0672V33.3451C16.0997 34.2288 15.3837 34.9407 14.5041 34.9407C13.6203 34.9407 12.9084 34.2247 12.9084 33.3451V28.0672C11.9674 27.5107 11.3046 26.5329 11.3046 25.3627ZM22.196 11.726V17.5031C19.6716 16.9589 17.0858 16.6848 14.5041 16.6848C11.9224 16.6848 9.33662 16.9589 6.80813 17.5031V11.726C6.80813 7.48321 10.2613 4.03414 14.5 4.03414C18.7428 4.03005 22.196 7.48321 22.196 11.726Z" fill="url(#paint0_linear_20_234)"/>
<defs>
<linearGradient id="paint0_linear_20_234" x1="2.6807e-07" y1="10.2544" x2="29.0011" y2="10.2863" gradientUnits="userSpaceOnUse">
<stop stop-color="#FF0000"/>
<stop offset="1" stop-color="#FF9900"/>
</linearGradient>
</defs>
</svg>
