<svg width="104" height="41" viewBox="0 0 104 41" fill="none" xmlns="http://www.w3.org/2000/svg">
<path d="M14.5 0C8.03555 0 2.77398 5.26157 2.77398 11.726V18.4237C2.77398 18.5014 2.67988 18.6282 2.60624 18.6528C1.97207 18.8655 1.45655 19.0456 0.986032 19.2297C0.425508 19.4465 0 20.0684 0 20.678V36.0659C0 36.6714 0.421416 37.2933 0.97785 37.5142C5.30248 39.2286 9.85214 40.0959 14.5 40.0959C19.1479 40.0959 23.6975 39.2286 28.0221 37.5142C28.5786 37.2933 29 36.6714 29 36.0659V20.678C29 20.0684 28.5745 19.4465 28.014 19.2297C27.5435 19.0497 27.0279 18.8655 26.3938 18.6528C26.3201 18.6282 26.226 18.5014 26.226 18.4237V11.726C26.226 5.26157 20.9644 0 14.5 0ZM11.3046 25.3627C11.3046 23.5993 12.7325 22.1673 14.5 22.1673C16.2634 22.1673 17.6954 23.5952 17.6954 25.3627C17.6954 26.5329 17.0367 27.5107 16.0997 28.0672V33.3451C16.0997 34.2288 15.3837 34.9407 14.5041 34.9407C13.6203 34.9407 12.9084 34.2247 12.9084 33.3451V28.0672C11.9674 27.5107 11.3046 26.5329 11.3046 25.3627ZM22.196 11.726V17.5031C19.6716 16.9589 17.0858 16.6848 14.5041 16.6848C11.9224 16.6848 9.33662 16.9589 6.80813 17.5031V11.726C6.80813 7.48321 10.2613 4.03414 14.5 4.03414C18.7428 4.03005 22.196 7.48321 22.196 11.726Z" fill="url(#paint0_linear_63_268)"/>
<path d="M49.9858 20.5653H53.5227C53.4716 17.4545 50.9148 15.3068 47.0284 15.3068C43.2017 15.3068 40.3977 17.4205 40.4148 20.5909C40.4062 23.1648 42.2216 24.6392 45.1705 25.3466L47.071 25.8239C48.9716 26.2841 50.0284 26.8295 50.0369 28.0057C50.0284 29.2841 48.8182 30.1534 46.9432 30.1534C45.0256 30.1534 43.6449 29.267 43.5256 27.5199H39.9545C40.0483 31.2955 42.75 33.2472 46.9858 33.2472C51.2472 33.2472 53.7528 31.2102 53.7614 28.0142C53.7528 25.108 51.5625 23.5653 48.5284 22.8835L46.9602 22.5085C45.4432 22.1591 44.1733 21.5966 44.1989 20.3438C44.1989 19.2188 45.196 18.392 47.0028 18.392C48.767 18.392 49.8494 19.1932 49.9858 20.5653ZM56.2436 33H68.0391V29.9574H59.9339V25.7898H67.3999V22.7472H59.9339V18.5881H68.005V15.5455H56.2436V33ZM86.3395 21.6562C85.8537 17.625 82.8026 15.3068 78.7628 15.3068C74.152 15.3068 70.6321 18.5625 70.6321 24.2727C70.6321 29.9659 74.0923 33.2386 78.7628 33.2386C83.2372 33.2386 85.9389 30.2642 86.3395 27.0511L82.6065 27.0341C82.2571 28.9006 80.7912 29.9744 78.8224 29.9744C76.1719 29.9744 74.3736 28.0057 74.3736 24.2727C74.3736 20.642 76.1463 18.571 78.848 18.571C80.8679 18.571 82.3253 19.7386 82.6065 21.6562H86.3395ZM88.9858 33H92.6761V26.8125H95.3693L98.6761 33H102.75L99.0426 26.2159C101.028 25.3636 102.128 23.6335 102.128 21.2472C102.128 17.7784 99.8352 15.5455 95.8722 15.5455H88.9858V33ZM92.6761 23.8466V18.5625H95.1648C97.2955 18.5625 98.3267 19.5085 98.3267 21.2472C98.3267 22.9773 97.2955 23.8466 95.1818 23.8466H92.6761Z" fill="black"/>
<defs>
<linearGradient id="paint0_linear_63_268" x1="2.6807e-07" y1="10.2544" x2="29.0011" y2="10.2863" gradientUnits="userSpaceOnUse">
<stop stop-color="#FF0000"/>
<stop offset="1" stop-color="#FF9900"/>
</linearGradient>
</defs>
</svg>
